<?xml version="1.0" encoding="iso-8859-1"?>
<!-- Generator: Adobe Illustrator 18.1.1, SVG Export Plug-In . SVG Version: 6.00 Build 0)  -->
<svg version="1.1" id="Capa_1" xmlns="http://www.w3.org/2000/svg" xmlns:xlink="http://www.w3.org/1999/xlink" x="0px" y="0px"
	 viewBox="0 0 280.469 280.469" style="enable-background:new 0 0 280.469 280.469;" xml:space="preserve">
<g>
	<path style="fill:#010002;" d="M277.61,182.97c-0.359-46.254-1.05-92.508-1.093-138.767c0-2.197-0.43-4.117-1.18-5.771
		c-0.468-9.257-4.585-19.048-13.685-28.974c-3.448-3.758-7.5-4.748-11.237-4.019C182.165,4.634,98.23-12.804,34.865,19.346
		C20.767,26.499,5.146,40.657,3.139,57.224c-1.61,2.067-2.622,4.754-2.654,8.082c-0.587,58.28,10.187,115.819,10.878,174.05
		c0.033,2.649,0.734,4.852,1.811,6.695c0.968,2.551,2.932,4.841,6.282,6.402c73.852,34.364,153.18,37.219,229.273,7.985
		c8.822-3.394,21.979-5.162,27.288-14.223c7.653-13.059,2.007-41.435,1.675-56.855C278.268,187.288,278.197,185.096,277.61,182.97z
		 M33.565,54.434C47.723,36.817,74.581,33.863,95.178,31.28c49.642-6.217,100.362,0.354,150.238,1.284
		c16.072,24.737-39.085,38.884-56.985,41.141c-38.302,4.846-78.181,1.702-116.336-2.888C63.675,69.81,22.746,67.895,33.565,54.434z
		 M28.082,89.793c8.708,2.943,18.226,4.427,26.064,5.716c52.177,8.577,115.205,15.382,166.615-0.691
		c10.16-3.176,20.135-7.963,28.735-13.951c0.065,10.133,0.131,20.266,0.218,30.399c-66.721,43.121-148.476,30.252-220.103,5.281
		C28.958,107.639,28.419,98.724,28.082,89.793z M32.074,146.044c71.034,23.236,150.994,32.7,217.949-3.345
		c0.033,2.622,0.054,5.238,0.082,7.859c0.098,8.599,0.158,17.198,0.234,25.797c-66.971,29.507-149.498,31.808-215.577-1.061
		C33.886,165.548,32.972,155.796,32.074,146.044z M241.5,234.217c-67.341,25.607-137.19,26.069-203.203-3.019
		c-0.228-8.371-0.615-16.725-1.159-25.069c67.374,27.892,145.68,25.651,213.429-0.653c0.044,7.734,0.082,15.474,0.103,23.208
		c1.104,0.577,2.208,1.153,3.312,1.735C249.572,230.654,245.405,231.921,241.5,234.217z"/>
</g>
<g>
</g>
<g>
</g>
<g>
</g>
<g>
</g>
<g>
</g>
<g>
</g>
<g>
</g>
<g>
</g>
<g>
</g>
<g>
</g>
<g>
</g>
<g>
</g>
<g>
</g>
<g>
</g>
<g>
</g>
</svg>
