<?xml version="1.0" encoding="UTF-8"?><svg id="Layer_1" xmlns="http://www.w3.org/2000/svg" viewBox="0 0 421.325 156.369"><defs><style>.cls-1{fill:#231f20;}</style></defs><path class="cls-1" d="M343.452,68.202c-2.776-2.689-6.839-3.069-9.294-3.069-2.25,0-4.589,.292-6.985,1.637-1.491,.818-3.215,2.25-4.589,4.647-.818-1.637-2.163-3.507-4.647-4.793-1.812-.964-4.063-1.49-6.459-1.49-3.303,0-7.19,1.198-10.054,4.647v-4.063h-5.407l-4.267,8.008-.818,1.549h-1.52v23.996h12.013v-16.572c0-2.104,0-5.348,2.104-7.365,.994-.994,2.017-1.198,3.303-1.198,1.198,0,2.543,.205,3.595,1.345,1.374,1.432,1.578,3.975,1.578,7.219v16.572h12.012v-17.186c0-1.666,.146-4.413,2.192-6.372,1.023-.994,2.163-1.374,3.507-1.374,1.578,0,2.484,.526,3.156,1.14,1.345,1.286,1.724,3.683,1.724,7.219v16.572h12.012v-21.833c0-2.338-.146-6.313-3.157-9.236Z"/><path class="cls-1" d="M138.197,98.515c-3.226,1.576-5.853,1.876-8.328,1.876-6.529,0-10.806-2.774-13.207-5.102-3.153-3.079-5.178-7.583-5.178-12.532s2.025-9.678,5.401-12.984c3.153-3,7.806-5.102,13.509-5.102,2.099,0,4.802,.379,7.803,1.876v10.057c-1.576-1.124-3.675-2.175-6.229-2.175-2.85,0-4.65,1.124-5.853,2.322-1.65,1.656-2.325,3.831-2.325,5.78,0,1.876,.675,4.051,2.102,5.627,1.124,1.204,3.076,2.554,6.153,2.554,1.726,0,3.978-.379,6.153-2.255v10.057Z"/><path class="cls-1" d="M156.298,65.722v18.758c0,1.35,.226,3.452,1.799,4.882,1.201,1.051,2.777,1.271,4.204,1.271,1.5,0,2.927-.147,4.277-1.424,1.5-1.503,1.726-3.226,1.726-4.729v-18.758h12.006v20.939c0,2.847-.226,5.927-3.226,9-4.127,4.277-9.904,4.729-14.484,4.729-5.026,0-11.181-.525-15.156-4.802-2.554-2.701-3.153-5.701-3.153-8.927v-20.939h12.006Z"/><path class="cls-1" d="M190.013,88.158c1.427,1.051,3.153,1.949,4.802,2.475,1.503,.525,3.379,.831,4.653,.831,.901,0,2.328-.226,3.076-.904,.525-.525,.602-.978,.602-1.576,0-.525-.076-1.051-.602-1.497-.748-.678-1.949-.904-3.15-1.204l-3.153-.752c-1.65-.373-4.051-.971-5.853-2.927-1.274-1.35-2.175-3.226-2.175-5.774,0-3.226,1.274-6.232,3.15-8.181,2.554-2.627,7.054-4.051,12.006-4.051s8.78,1.35,10.732,2.175l-4.054,7.656c-1.65-.752-4.124-1.656-6.303-1.656-1.201,0-2.025,.226-2.777,.678-.675,.373-1.051,.898-1.051,1.65,0,1.051,.678,1.576,1.427,1.876,1.127,.452,2.102,.452,3.978,.978l2.175,.599c1.576,.452,3.978,1.65,4.952,2.627,1.653,1.576,2.554,4.204,2.554,6.678,0,4.051-1.726,6.752-3.379,8.328-3.901,3.904-9.605,4.204-12.382,4.204-3,0-7.726-.373-13.506-3.904l4.277-8.328Z"/><path class="cls-1" d="M389.785,84.706h-24.99c0,1.802,.675,4.204,2.102,5.627,.752,.752,2.252,1.65,4.952,1.65,.299,0,2.401-.073,3.901-.898,.752-.452,1.576-1.198,2.102-2.248h11.481c-.525,1.876-1.576,4.503-4.051,6.904-2.478,2.401-6.379,4.65-13.659,4.65-4.427,0-9.755-.978-13.882-5.102-2.175-2.175-4.952-6.306-4.952-12.684,0-5.627,2.102-10.13,5.029-12.978,2.777-2.701,7.127-4.882,13.732-4.882,3.901,0,8.93,.825,12.907,4.583,4.726,4.497,5.328,10.35,5.328,14.102v1.277Zm-11.032-6.904c-.299-1.271-1.051-2.701-1.952-3.599-1.576-1.576-3.752-1.802-4.952-1.802-2.025,0-3.602,.525-4.876,1.802-.828,.898-1.576,2.102-1.802,3.599h13.583Z"/><path class="cls-1" d="M395.962,65.722h12.006v5.481c1.201-2.255,2.927-3.752,4.726-4.656,1.802-.978,3.978-1.35,6.229-1.35,.299,0,.825,.073,2.401,.153v11.328c-.599-.299-2.252-1.198-5.178-1.198-1.576,0-3.752,.22-5.478,1.796-2.551,2.328-2.701,5.853-2.701,7.656v14.334h-12.006v-33.544Z"/><path class="cls-1" d="M118.698,110.983l11.043,.011-.871,3.61c3.364-3.074,7.213-4.137,10.247-4.134,2.209,.002,4.166,.473,5.615,1.34,2.001,1.14,2.84,2.813,3.247,4.284,1.758-2.139,3.652-3.406,5.209-4.14,2.499-1.201,4.702-1.466,6.772-1.464,2.279,.002,5.924,.338,7.898,2.748,2.13,2.611,1.415,6.156,.914,8.231l-4.696,19.462-11.043-.011,3.566-14.779c.76-3.147,.93-5.288-.038-6.422-.491-.54-1.207-1.009-2.657-1.01-1.242-.001-2.36,.335-3.533,1.2-2.286,1.741-3.02,4.213-3.375,5.683l-3.696,15.318-11.043-.011,3.566-14.779c.694-2.875,1.038-5.151,.099-6.422-.721-1.008-1.918-1.206-3.022-1.207-1.172-.001-2.186,.194-3.292,1.064-2.369,1.806-3.063,4.681-3.515,6.554l-3.566,14.779-11.043-.011,7.214-29.895Z"/><path class="cls-1" d="M203.085,137.023c-5.007,3.873-10.029,4.941-14.996,4.936-4.487-.005-9.248-.881-12.54-4.964-2.609-3.211-3.069-7.024-2.1-11.037,1.292-5.353,4.614-8.824,7.409-10.962,3.132-2.404,8.233-4.943,14.929-4.936,6.831,.007,10.618,2.62,12.607,4.964,1.762,2.142,3.408,5.619,2.116,10.972-.968,4.013-3.268,7.823-7.425,11.027Zm-14.861-15.936c-1.69,1.273-2.899,3.14-3.32,4.882-.435,1.802,.044,3.546,.995,4.751,1.003,1.27,2.621,2.007,4.484,2.009,1.795,.002,3.766-.731,5.384-1.999,1.687-1.273,2.868-3.009,3.287-4.746,.388-1.606,.094-3.546-.962-4.887-.967-1.139-2.707-1.942-4.433-1.944-1.793-.002-3.919,.797-5.436,1.933Z"/><path class="cls-1" d="M227.658,111.095l3.689,15.32,11.217-15.304,12.285,.013-23.295,29.878-7.522-.008-8.729-29.911,12.355,.013Z"/><path class="cls-1" d="M132.544,42.854V0h-36.954V20.021h-12.311c-.447-.639-.98-1.171-1.619-1.619V0H44.664V53.333c-1.768,1.257-2.918,3.323-2.918,5.666,0,3.834,3.11,6.965,6.965,6.965,.937,0,1.832-.192,2.662-.532l22.215,13.93,3.791,2.385,2.449,1.533,.256,.234c0,.107,0,.213,.021,.32,.234,1.981,1.299,3.706,2.854,4.792v45.261h-20.852v-10.33c.639-.447,1.171-.98,1.619-1.619,.831-1.129,1.299-2.513,1.299-4.026s-.469-2.897-1.299-4.047c-.447-.639-.98-1.171-1.619-1.619-1.129-.809-2.513-1.299-4.026-1.299s-2.897,.49-4.047,1.299c-.639,.447-1.171,.98-1.619,1.619h-20.383v20.021H11.225v-35.527c1.64-1.257,2.684-3.238,2.684-5.474,0-2.322-1.15-4.388-2.918-5.644-1.129-.831-2.535-1.299-4.047-1.299s-2.897,.469-4.026,1.299c-1.768,1.257-2.918,3.323-2.918,5.644,0,2.343,1.15,4.409,2.918,5.666,.085,.064,.149,.107,.234,.17v43.237H40.106v-20.021h12.311c.447,.639,.98,1.171,1.619,1.619v18.402h36.997v-53.333c1.576-1.129,2.662-2.897,2.875-4.92,.021-.298,.043-.575,.043-.873,0-.49-.064-.958-.17-1.427-.085-.426-.234-.809-.405-1.214-.192-.447-.447-.895-.745-1.278-.447-.66-.958-1.257-1.597-1.725-1.129-.831-2.535-1.299-4.047-1.299-.98,0-1.917,.192-2.769,.575-.021,0-.021,.021-.043,.021l-.064-.043-2.449-1.534-8.072-5.069-17.955-11.267c-.128-2.173-1.235-4.068-2.897-5.24V8.072h20.852v10.33c-.639,.447-1.171,.98-1.619,1.619-.831,1.129-1.299,2.513-1.299,4.026s.469,2.897,1.299,4.047c.447,.639,.98,1.171,1.619,1.619,1.129,.809,2.513,1.299,4.026,1.299s2.897-.49,4.047-1.299c.639-.447,1.171-.98,1.619-1.619h20.383V8.072h20.809V42.854c-1.768,1.257-2.918,3.323-2.918,5.644,0,2.343,1.15,4.409,2.918,5.666,1.129,.809,2.513,1.299,4.025,1.299s2.918-.49,4.047-1.299c1.768-1.257,2.918-3.323,2.918-5.666,0-2.322-1.15-4.388-2.918-5.644Z"/><path class="cls-1" d="M150.184,0c3.802,0,6.842,3.04,6.842,6.84s-3.04,6.839-6.842,6.839-6.839-3.04-6.839-6.839,3.04-6.84,6.839-6.84Zm6.079,20.974V54.944h-12.159V20.974h12.159Z"/><path class="cls-1" d="M164.849,43.697c1.444,1.063,3.194,1.977,4.864,2.507,1.521,.532,3.422,.836,4.712,.836,.913,0,2.358-.228,3.117-.912,.531-.532,.608-.988,.608-1.596,0-.532-.077-1.065-.608-1.52-.759-.685-1.975-.912-3.191-1.216l-3.194-.761c-1.67-.38-4.102-.988-5.925-2.964-1.293-1.367-2.203-3.267-2.203-5.851,0-3.268,1.29-6.308,3.191-8.283,2.583-2.66,7.141-4.104,12.159-4.104s8.891,1.369,10.866,2.205l-4.104,7.751c-1.67-.759-4.179-1.671-6.382-1.671-1.216,0-2.052,.227-2.811,.684-.685,.38-1.065,.912-1.065,1.673,0,1.063,.685,1.596,1.444,1.899,1.139,.455,2.126,.455,4.027,.988l2.203,.608c1.596,.455,4.027,1.671,5.015,2.66,1.673,1.596,2.586,4.256,2.586,6.763,0,4.104-1.75,6.839-3.422,8.436-3.95,3.952-9.727,4.256-12.539,4.256-3.04,0-7.826-.381-13.677-3.952l4.33-8.436Z"/><path class="cls-1" d="M276.242,111.085h10.718l-.966,3.751c3.949-3.885,8.039-4.421,10.651-4.421,3.082,0,6.174,.736,8.016,3.215,1.889,2.545,1.502,5.091,.657,8.373l-4.898,19.025h-10.718l3.897-15.139c.449-1.742,1.187-4.355,.159-5.828-.728-1.072-2.015-1.273-3.086-1.273-1.676,0-3.237,.603-4.315,1.406-1.331,1.005-2.502,2.948-2.968,4.757l-4.139,16.077h-10.718l7.709-29.944Z"/><path class="cls-1" d="M347.45,111.085l-7.226,28.069c-1.155,4.489-2.61,8.576-7.276,12.393-4.82,3.887-10.085,4.823-14.441,4.823-5.558,0-9.818-1.406-12.637-5.291-1.275-1.809-1.949-3.618-1.679-6.231h11.923c.092,1.206,.681,3.083,4.231,3.083,1.676,0,3.438-.337,5.189-1.676,2.24-1.676,3.127-3.819,3.575-5.56l.776-3.014c-4.265,3.55-7.584,3.951-9.994,3.951-5.492,0-8.491-2.144-9.966-4.221-1.973-2.746-2.395-6.832-1.343-10.918,1.207-4.69,4.12-8.977,7.439-11.723,3.657-3.014,8.074-4.555,12.027-4.555,1.874,0,5.656,.401,7.892,3.953l.793-3.082h10.718Zm-24.426,10.049c-1.954,1.608-2.955,3.415-3.317,4.823-.448,1.741-.177,3.55,.817,4.89,1.044,1.406,2.715,1.942,4.323,1.942,1.676,0,3.74-.737,5.34-2.009,1.683-1.34,2.855-3.282,3.252-4.823s.061-3.618-.885-4.89c-.895-1.206-2.448-1.944-4.257-1.944s-3.504,.603-5.273,2.01Z"/><path class="cls-1" d="M233.704,65.71v-7.833h-12.012v7.833h-3.829v9.85h3.829v23.703h12.012v-23.703h6.839v-9.85h-6.839Z"/><path class="cls-1" d="M281.724,75.275h-10.96l2.221-4.267,1.754-3.361c-2.835-1.695-6.664-3.04-11.691-3.04-7.278,0-12.159,2.835-14.935,5.553-2.455,2.397-5.173,6.284-5.173,12.305,0,4.501,1.52,8.768,5.173,12.363,3.507,3.449,7.395,4.852,11.194,5.349,0-.76,.088-1.52,.292-2.28,1.198-4.618,5.758-8.213,10.405-8.213,2.484,0,4.706,1.023,6.079,2.806,.672,.848,1.111,1.871,1.345,2.952,.234-.205,.438-.409,.643-.614,3.683-3.595,5.173-7.862,5.173-12.363,0-2.864-.614-5.232-1.52-7.19Zm-13.269,12.509c-1.432,1.432-3.361,2.25-5.319,2.25-2.017,0-3.975-.818-5.407-2.25-1.345-1.345-2.338-3.303-2.338-5.319,0-1.958,.848-4.063,2.338-5.495,1.344-1.257,3.449-2.163,5.407-2.163,1.871,0,3.975,.906,5.319,2.163,1.491,1.52,2.338,3.683,2.338,5.495,0,1.929-.848,3.887-2.338,5.319Z"/><polygon class="cls-1" points="316.446 20.971 292.685 65.718 289.411 71.914 289.177 72.353 275.558 72.353 277.107 69.342 286.956 50.315 270.56 20.971 284.676 20.971 293.737 38.391 302.534 20.971 316.446 20.971"/><path class="cls-1" d="M259.892,111.079l-7.716,29.958h10.726l7.716-29.958h-10.726Z"/><path class="cls-1" d="M274.681,97.517c0,.351-.059,.731-.175,1.111-.877,3.361-4.238,6.021-7.599,6.021-2.747,0-4.589-1.783-4.647-4.296-.059-.555,.029-1.14,.175-1.724,.848-3.361,4.238-6.021,7.57-6.021,2.981,0,4.881,2.075,4.676,4.91Z"/><path class="cls-1" d="M268.192,32.829v22.125h-12.158v-16.806c0-3.566-.38-5.992-1.754-7.307-.672-.585-1.578-1.14-3.186-1.14-1.374,0-2.513,.38-3.566,1.374-2.046,1.987-2.192,4.793-2.192,6.459v17.419h-12.159v-16.806c0-3.274-.234-5.845-1.607-7.307-1.052-1.14-2.426-1.345-3.653-1.345-1.286,0-2.338,.205-3.332,1.198-2.134,2.046-2.134,5.319-2.134,7.453v16.806h-12.159V20.963h12.159v4.121c2.893-3.507,6.839-4.706,10.171-4.706,2.455,0,4.735,.526,6.547,1.52,2.514,1.286,3.887,3.186,4.706,4.852,1.374-2.426,3.127-3.887,4.647-4.706,2.426-1.374,4.793-1.666,7.073-1.666,2.484,0,6.605,.38,9.411,3.098,3.04,2.981,3.186,6.985,3.186,9.353Z"/></svg>