<?xml version="1.0" encoding="UTF-8" standalone="no"?>
<!-- Created with Inkscape (http://www.inkscape.org/) -->

<svg
   version="1.1"
   id="svg2"
   xml:space="preserve"
   width="576"
   height="201.09332"
   viewBox="0 0 576 201.09332"
   sodipodi:docname="DMCM - Logo (Black Text).ai"
   xmlns:inkscape="http://www.inkscape.org/namespaces/inkscape"
   xmlns:sodipodi="http://sodipodi.sourceforge.net/DTD/sodipodi-0.dtd"
   xmlns="http://www.w3.org/2000/svg"
   xmlns:svg="http://www.w3.org/2000/svg"><defs
     id="defs6"><clipPath
       clipPathUnits="userSpaceOnUse"
       id="clipPath16"><path
         d="M 0,150.82 H 432 V 0 H 0 Z"
         id="path14" /></clipPath></defs><sodipodi:namedview
     id="namedview4"
     pagecolor="#ffffff"
     bordercolor="#666666"
     borderopacity="1.0"
     inkscape:pageshadow="2"
     inkscape:pageopacity="0.0"
     inkscape:pagecheckerboard="0" /><g
     id="g8"
     inkscape:groupmode="layer"
     inkscape:label="DMCM - Logo (Black Text)"
     transform="matrix(1.3333333,0,0,-1.3333333,0,201.09333)"><g
       id="g10"><g
         id="g12"
         clip-path="url(#clipPath16)"><g
           id="g18"
           transform="translate(175.3017,106.3842)"><path
             d="m 0,0 c -1.281,-1.132 -3.276,-2.055 -5.271,-2.055 -1.311,0 -2.8,0.357 -4.17,1.251 -0.447,0.298 -0.864,0.655 -1.251,1.042 -1.608,1.609 -2.353,3.574 -2.353,5.361 0,2.294 0.953,4.408 2.353,5.808 0.357,0.357 0.774,0.715 1.251,1.012 1.042,0.686 2.412,1.192 4.17,1.192 2.293,0 4.199,-0.834 5.599,-2.294 C 1.549,10.007 2.621,7.714 2.621,5.808 2.621,3.753 1.608,1.459 0,0 M 2.234,44.436 V 19.597 C 0,21.95 -3.276,24.005 -7.952,24.005 c -0.476,0 -1.013,-0.03 -1.489,-0.059 -3.753,-0.298 -7.595,-1.698 -10.603,-4.528 -0.566,-0.536 -1.132,-1.161 -1.638,-1.846 -2.293,-2.919 -3.901,-6.969 -3.901,-11.675 0,-4.527 1.399,-8.637 3.901,-11.794 0.477,-0.655 1.013,-1.281 1.579,-1.817 2.918,-2.859 6.403,-4.437 10.662,-4.735 0.447,-0.03 0.893,-0.03 1.37,-0.03 2.353,0 6.88,0.506 10.305,4.914 v -3.752 h 12.241 v 55.753 z"
             style="fill:#000000;fill-opacity:1;fill-rule:nonzero;stroke:none"
             id="path20" /></g><g
           id="g22"
           transform="translate(209.6712,146.591)"><path
             d="m 0,0 c -1.102,2.234 -3.425,3.782 -6.135,3.782 -2.681,0 -4.974,-1.518 -6.106,-3.722 -0.476,-0.953 -0.774,-2.026 -0.774,-3.157 0,-1.162 0.298,-2.234 0.774,-3.187 1.132,-2.204 3.425,-3.693 6.106,-3.693 2.71,0 5.033,1.519 6.135,3.782 0.506,0.894 0.745,1.966 0.745,3.098 C 0.745,-1.966 0.506,-0.953 0,0 M -12.241,-51.524 H 0 v 34.191 h -12.241 z"
             style="fill:#000000;fill-opacity:1;fill-rule:nonzero;stroke:none"
             id="path24" /></g><g
           id="g26"
           transform="translate(335.7419,126.7259)"><path
             d="m 0,0 c -2.829,2.77 -6.969,3.127 -9.501,3.127 -2.293,0 -4.646,-0.298 -7.088,-1.668 -1.549,-0.833 -3.306,-2.293 -4.676,-4.735 -0.834,1.668 -2.234,3.574 -4.735,4.884 -1.847,0.983 -4.14,1.519 -6.582,1.519 -3.366,0 -7.357,-1.221 -10.246,-4.735 v 4.139 h -12.24 v -34.19 h 12.24 v 16.916 c 0,2.115 0,5.421 2.145,7.476 0.983,1.013 2.055,1.221 3.365,1.221 1.221,0 2.591,-0.208 3.663,-1.37 1.371,-1.459 1.609,-4.05 1.609,-7.327 v -16.916 h 12.241 v 17.512 c 0,1.698 0.148,4.527 2.203,6.523 1.073,0.982 2.234,1.37 3.604,1.37 1.608,0 2.532,-0.537 3.217,-1.162 1.37,-1.281 1.757,-3.753 1.757,-7.327 V -31.659 H 3.217 V -9.411 C 3.217,-7.029 3.038,-2.978 0,0"
             style="fill:#000000;fill-opacity:1;fill-rule:nonzero;stroke:none"
             id="path28" /></g><g
           id="g30"
           transform="translate(355.1901,74.3378)"><path
             d="m 0,0 h -12.955 l 2.442,4.706 1.221,2.382 c -1.013,0.149 -1.966,0.179 -2.74,0.179 -2.294,0 -4.646,-0.298 -7.089,-1.668 -1.548,-0.834 -3.306,-2.293 -4.675,-4.735 -0.834,1.668 -2.204,3.603 -4.736,4.884 -1.847,1.013 -4.14,1.519 -6.582,1.519 -3.365,0 -7.327,-1.191 -10.245,-4.735 v 4.14 H -57.6 v -34.191 h 12.241 v 16.916 c 0,2.145 0,5.421 2.144,7.476 0.983,1.013 2.055,1.221 3.366,1.221 1.221,0 2.591,-0.208 3.663,-1.37 1.37,-1.459 1.608,-4.05 1.608,-7.327 v -16.916 h 12.241 v 17.512 c 0,1.698 0.149,4.527 2.204,6.522 1.072,0.983 2.233,1.371 3.604,1.371 1.608,0 2.531,-0.537 3.216,-1.162 1.37,-1.281 1.757,-3.753 1.757,-7.327 V -27.519 H 0.685 V -5.271 C 0.685,-3.902 0.626,-1.966 0,0"
             style="fill:#000000;fill-opacity:1;fill-rule:nonzero;stroke:none"
             id="path32" /></g><g
           id="g34"
           transform="translate(137.1499,72.1339)"><path
             d="M 0,0 C 2.591,0 4.736,-1.072 6.344,-2.204 V 8.041 C 3.276,9.56 0.536,9.948 -1.608,9.948 c -5.808,0 -10.543,-2.145 -13.76,-5.183 -3.455,-3.395 -5.51,-8.19 -5.51,-13.253 0,-5.033 2.055,-9.62 5.272,-12.747 2.442,-2.383 6.82,-5.212 13.462,-5.212 2.531,0 5.212,0.298 8.488,1.906 v 10.245 c -2.204,-1.906 -4.497,-2.293 -6.255,-2.293 -3.157,0 -5.122,1.37 -6.284,2.621 -1.459,1.578 -2.144,3.812 -2.144,5.718 0,1.996 0.685,4.2 2.382,5.897 C -4.735,-1.132 -2.919,0 0,0"
             style="fill:#000000;fill-opacity:1;fill-rule:nonzero;stroke:none"
             id="path36" /></g><g
           id="g38"
           transform="translate(174.17,81.0094)"><path
             d="m 0,0 v -19.121 c 0,-1.519 -0.238,-3.276 -1.757,-4.795 -1.37,-1.31 -2.829,-1.459 -4.348,-1.459 -1.46,0 -3.068,0.208 -4.289,1.281 -1.608,1.459 -1.847,3.603 -1.847,4.973 V 0 h -12.211 v -21.325 c 0,-3.305 0.596,-6.343 3.187,-9.113 4.051,-4.349 10.335,-4.885 15.457,-4.885 4.676,0 10.544,0.447 14.773,4.825 3.038,3.128 3.276,6.255 3.276,9.173 l 0,21.325 z"
             style="fill:#000000;fill-opacity:1;fill-rule:nonzero;stroke:none"
             id="path40" /></g><g
           id="g42"
           transform="translate(219.172,65.2541)"><path
             d="m 0,0 c -1.013,1.013 -3.455,2.234 -5.063,2.681 l -2.204,0.625 c -1.906,0.536 -2.919,0.536 -4.051,0.983 -0.774,0.298 -1.459,0.834 -1.459,1.906 0,0.774 0.387,1.31 1.072,1.698 0.775,0.446 1.609,0.684 2.83,0.684 2.203,0 4.735,-0.923 6.403,-1.697 l 4.14,7.803 c -1.996,0.834 -5.867,2.234 -10.931,2.234 -5.033,0 -9.619,-1.46 -12.24,-4.14 -1.906,-1.996 -3.217,-5.063 -3.217,-8.339 0,-2.591 0.923,-4.498 2.234,-5.868 1.817,-1.995 4.289,-2.62 5.956,-3.008 l 3.217,-0.744 c 1.221,-0.328 2.442,-0.536 3.217,-1.221 0.536,-0.477 0.595,-1.013 0.595,-1.549 0,-0.596 -0.059,-1.072 -0.595,-1.608 -0.775,-0.685 -2.234,-0.924 -3.157,-0.924 -1.281,0 -3.187,0.328 -4.736,0.864 -1.668,0.536 -3.425,1.46 -4.884,2.532 l -4.349,-8.488 c 5.868,-3.604 10.692,-3.991 13.76,-3.991 2.83,0 8.637,0.298 12.598,4.288 1.698,1.609 3.455,4.349 3.455,8.489 C 2.591,-4.289 1.668,-1.608 0,0"
             style="fill:#000000;fill-opacity:1;fill-rule:nonzero;stroke:none"
             id="path44" /></g><g
           id="g46"
           transform="translate(240.824,81.0094)"><path
             d="m 0,0 v 10.841 h -0.357 v 0.328 c -2.115,-0.983 -4.498,-1.49 -7.059,-1.49 -1.668,0 -3.306,0.179 -4.825,0.536 V 0 h -3.901 v -10.007 h 3.901 V -34.191 H 0 v 24.184 H 6.969 V 0 Z"
             style="fill:#000000;fill-opacity:1;fill-rule:nonzero;stroke:none"
             id="path48" /></g><g
           id="g50"
           transform="translate(276.2358,58.5232)"><path
             d="m 0,0 c -1.459,-1.43 -3.425,-2.293 -5.421,-2.293 -2.084,0 -4.05,0.863 -5.509,2.293 -1.37,1.37 -2.383,3.365 -2.383,5.45 0,1.966 0.834,4.11 2.383,5.57 1.37,1.31 3.514,2.204 5.509,2.204 C -3.514,13.224 -1.37,12.33 0,11.02 1.519,9.501 2.383,7.267 2.383,5.45 2.383,3.455 1.519,1.459 0,0 m 9.798,17.989 c -2.829,2.65 -7.743,5.659 -15.308,5.659 -7.416,0 -12.39,-2.919 -15.219,-5.659 C -23.231,15.517 -26,11.556 -26,5.45 c 0,-4.616 1.519,-8.964 5.271,-12.628 4.736,-4.676 10.245,-5.658 15.219,-5.658 5.51,0 10.782,1.221 15.308,5.658 3.723,3.664 5.272,8.012 5.272,12.628 0,6.106 -2.77,10.067 -5.272,12.539"
             style="fill:#000000;fill-opacity:1;fill-rule:nonzero;stroke:none"
             id="path52" /></g><g
           id="g54"
           transform="translate(374.7873,68.709)"><path
             d="M 0,0 C 0.238,1.519 0.983,2.74 1.847,3.663 3.127,4.974 4.735,5.51 6.79,5.51 8.012,5.51 10.245,5.271 11.854,3.663 12.777,2.74 13.521,1.281 13.849,0 Z m 25.077,-5.748 c 0,3.842 -0.625,9.798 -5.42,14.385 -4.051,3.812 -9.174,4.676 -13.164,4.676 -6.731,0 -11.169,-2.234 -13.998,-4.974 -2.979,-2.919 -5.123,-7.505 -5.123,-13.223 0,-6.523 2.829,-10.722 5.063,-12.926 4.2,-4.229 9.62,-5.212 14.147,-5.212 7.416,0 11.377,2.293 13.909,4.735 2.531,2.443 3.603,5.123 4.139,7.029 H 12.926 c -0.536,-1.072 -1.37,-1.817 -2.145,-2.293 -1.519,-0.834 -3.663,-0.894 -3.991,-0.894 -2.74,0 -4.259,0.894 -5.033,1.668 -1.459,1.459 -2.144,3.902 -2.144,5.748 h 25.464 z"
             style="fill:#000000;fill-opacity:1;fill-rule:nonzero;stroke:none"
             id="path56" /></g><g
           id="g58"
           transform="translate(429.5578,81.5454)"><path
             d="m 0,0 c -2.293,0 -4.497,-0.387 -6.344,-1.37 -1.846,-0.923 -3.603,-2.442 -4.825,-4.736 v 5.57 h -12.24 v -34.191 h 12.24 v 14.624 c 0,1.846 0.149,5.42 2.77,7.803 1.757,1.608 3.961,1.816 5.57,1.816 2.978,0 4.675,-0.893 5.271,-1.221 V -0.149 C 0.834,-0.06 0.298,0 0,0"
             style="fill:#000000;fill-opacity:1;fill-rule:nonzero;stroke:none"
             id="path60" /></g><g
           id="g62"
           transform="translate(173.7233,29.4849)"><path
             d="m 0,0 c -2.025,2.442 -5.718,2.8 -8.041,2.8 -2.115,0 -4.378,-0.268 -6.91,-1.49 -1.578,-0.744 -3.514,-2.055 -5.301,-4.229 -0.417,1.519 -1.281,3.217 -3.306,4.378 -1.489,0.894 -3.485,1.37 -5.719,1.37 -3.097,0 -7.028,-1.102 -10.453,-4.229 l 0.893,3.693 h -11.258 l -7.356,-30.467 h 11.258 l 3.633,15.07 c 0.447,1.906 1.162,4.824 3.574,6.671 1.132,0.893 2.174,1.072 3.366,1.072 1.131,0 2.353,-0.179 3.067,-1.221 0.953,-1.281 0.626,-3.604 -0.089,-6.552 l -3.633,-15.04 11.257,-0.03 3.753,15.606 c 0.357,1.519 1.102,4.021 3.455,5.808 1.191,0.863 2.323,1.221 3.604,1.221 1.459,0 2.203,-0.477 2.68,-1.043 1.013,-1.161 0.834,-3.335 0.06,-6.522 L -15.1,-28.204 H -3.842 L 0.923,-8.399 C 1.43,-6.284 2.174,-2.651 0,0"
             style="fill:#94d2bc;fill-opacity:1;fill-rule:nonzero;stroke:none"
             id="path64" /></g><g
           id="g66"
           transform="translate(205.5016,16.4996)"><path
             d="m 0,0 c -0.417,-1.757 -1.608,-3.544 -3.336,-4.825 -1.667,-1.31 -3.663,-2.055 -5.48,-2.055 -1.906,0 -3.544,0.745 -4.586,2.055 -0.953,1.221 -1.46,3.008 -1.013,4.825 0.447,1.787 1.668,3.693 3.395,5.003 1.549,1.132 3.693,1.966 5.54,1.966 1.757,0 3.514,-0.834 4.497,-1.995 C 0.119,3.604 0.417,1.638 0,0 m 9.531,11.169 c -2.026,2.382 -5.897,5.063 -12.867,5.063 -6.82,0 -12.002,-2.591 -15.189,-5.034 -2.859,-2.174 -6.254,-5.718 -7.565,-11.168 -0.982,-4.08 -0.506,-7.982 2.145,-11.258 3.365,-4.14 8.22,-5.034 12.776,-5.063 5.064,0 10.186,1.102 15.279,5.033 4.229,3.276 6.582,7.148 7.565,11.258 1.31,5.45 -0.358,8.994 -2.144,11.169"
             style="fill:#94d2bc;fill-opacity:1;fill-rule:nonzero;stroke:none"
             id="path68" /></g><g
           id="g70"
           transform="translate(249.8483,31.6592)"><path
             d="M 0,0 -11.437,-15.606 -15.189,0 l -12.598,0.03 8.905,-30.498 h 7.654 L 12.509,-0.03 Z"
             style="fill:#94d2bc;fill-opacity:1;fill-rule:nonzero;stroke:none"
             id="path72" /></g><g
           id="g74"
           transform="translate(271.411,20.6693)"><path
             d="m 0,0 c 0.536,1.34 1.519,2.442 2.472,3.246 1.489,1.162 3.068,1.638 4.974,1.638 1.131,0 3.127,-0.208 4.259,-1.638 0.625,-0.804 1.042,-2.114 1.042,-3.276 z m 19.925,7.654 c -2.889,3.425 -7.416,4.17 -11.08,4.2 -6.194,0 -10.751,-1.996 -13.938,-4.438 -3.365,-2.591 -6.314,-6.671 -7.565,-11.764 -1.399,-5.808 0.298,-9.561 1.877,-11.526 2.948,-3.753 7.743,-4.646 11.883,-4.646 6.82,-0.03 10.96,2.025 13.819,4.199 2.859,2.174 4.408,4.557 5.301,6.254 l -10.751,0.03 c -0.715,-0.953 -1.668,-1.638 -2.472,-2.055 -1.579,-0.744 -3.574,-0.804 -3.842,-0.804 -2.532,0 -3.753,0.834 -4.289,1.519 -1.012,1.281 -1.132,3.455 -0.715,5.093 l 23.41,-0.03 0.268,1.161 c 0.834,3.426 1.548,8.727 -1.906,12.807"
             style="fill:#94d2bc;fill-opacity:1;fill-rule:nonzero;stroke:none"
             id="path76" /></g><g
           id="g78"
           transform="translate(388.666,129.2574)"><path
             d="m 0,0 -26.12,-49.231 -1.31,-2.472 h -13.7 l 1.608,3.097 1.162,2.264 8.696,16.827 L -46.163,0 h 14.206 L -22.843,-17.512 -13.998,0 Z"
             style="fill:#000000;fill-opacity:1;fill-rule:nonzero;stroke:none"
             id="path80" /></g><g
           id="g82"
           transform="translate(241.4793,106.3842)"><path
             d="m 0,0 c -1.281,-1.132 -3.276,-2.055 -5.272,-2.055 -1.727,0 -3.752,0.596 -5.42,2.293 -1.608,1.609 -2.353,3.574 -2.353,5.361 0,2.294 0.953,4.408 2.353,5.808 1.072,1.072 2.829,2.204 5.42,2.204 2.294,0 4.2,-0.834 5.6,-2.294 C 1.549,10.007 2.621,7.714 2.621,5.808 2.621,3.753 1.608,1.459 0,0 M 2.234,44.436 V 19.597 C 0,21.95 -3.276,24.005 -7.952,24.005 c -4.199,0 -8.697,-1.37 -12.092,-4.587 -3.127,-2.978 -5.54,-7.713 -5.54,-13.521 0,-5.45 2.055,-10.245 5.481,-13.611 3.216,-3.127 7.118,-4.765 12.032,-4.765 2.353,0 6.85,0.506 10.305,4.914 v -3.752 h 12.24 v 55.753 z"
             style="fill:#000000;fill-opacity:1;fill-rule:nonzero;stroke:none"
             id="path84" /></g><g
           id="g86"
           transform="translate(143.6426,99.2959)"><path
             d="m 0,0 c 0,-2.472 -1.221,-4.676 -3.097,-6.016 -1.192,-0.864 -2.681,-1.37 -4.289,-1.37 -1.608,0 -3.097,0.506 -4.289,1.37 -1.876,1.34 -3.097,3.544 -3.097,6.016 0,2.472 1.221,4.676 3.097,5.986 V 42.947 H -33.774 V 21.682 h -21.652 c -0.476,-0.685 -1.042,-1.251 -1.727,-1.727 -1.221,-0.864 -2.681,-1.371 -4.289,-1.371 -1.608,0 -3.097,0.507 -4.289,1.371 -0.685,0.476 -1.251,1.042 -1.727,1.727 -0.864,1.221 -1.37,2.68 -1.37,4.289 0,1.608 0.506,3.097 1.37,4.288 0.476,0.685 1.042,1.251 1.727,1.728 v 10.96 h -22.158 v -48.07 c 1.787,-1.25 2.948,-3.276 3.097,-5.569 l 19.061,-11.973 8.578,-5.39 2.591,-1.638 0.089,-0.03 c 0,0 0,0.03 0.03,0.03 0.923,0.387 1.906,0.595 2.949,0.595 1.608,0 3.097,-0.506 4.288,-1.37 0.685,-0.506 1.221,-1.132 1.698,-1.846 0.327,-0.388 0.596,-0.864 0.804,-1.341 0.179,-0.446 0.328,-0.833 0.417,-1.31 0.119,-0.476 0.179,-0.983 0.179,-1.519 0,-0.298 0,-0.596 -0.03,-0.923 -0.238,-2.145 -1.4,-4.021 -3.068,-5.212 v -56.677 h -39.283 v 19.567 c -0.685,0.477 -1.251,1.043 -1.728,1.728 h -13.074 v -21.295 h -39.254 v 46.164 c -1.876,1.31 -3.098,3.514 -3.098,5.986 0,2.472 1.222,4.676 3.098,6.016 1.191,0.864 2.68,1.37 4.289,1.37 1.608,0 3.097,-0.506 4.288,-1.37 1.877,-1.34 3.098,-3.544 3.098,-6.016 0,-2.472 -1.221,-4.676 -3.098,-5.986 v -37.586 h 22.099 v 21.294 h 21.652 c 0.477,0.656 1.043,1.221 1.728,1.698 1.221,0.863 2.68,1.4 4.288,1.4 1.609,0 3.068,-0.537 4.289,-1.4 0.655,-0.477 1.221,-1.042 1.698,-1.698 0.893,-1.221 1.4,-2.71 1.4,-4.318 0,-1.609 -0.507,-3.068 -1.4,-4.259 -0.477,-0.685 -1.043,-1.251 -1.698,-1.728 v -10.989 h 22.129 v 48.099 c -1.638,1.161 -2.77,2.978 -3.008,5.093 -0.03,0.119 -0.03,0.208 -0.03,0.327 l -0.268,0.268 -2.621,1.609 -4.021,2.531 -23.588,14.802 c -0.893,-0.357 -1.846,-0.566 -2.829,-0.566 -4.11,0 -7.416,3.336 -7.416,7.416 0,2.472 1.221,4.676 3.098,6.016 v 56.647 h 39.313 V 31.987 c 0.685,-0.477 1.251,-1.043 1.727,-1.728 h 13.075 V 51.524 H -3.097 V 5.986 C -1.221,4.676 0,2.472 0,0"
             style="fill:#94d2bc;fill-opacity:1;fill-rule:nonzero;stroke:none"
             id="path88" /></g></g></g></g></svg>
